<?xml version="1.0" encoding="utf-8"?>
<!-- Generator: Adobe Illustrator 19.1.0, SVG Export Plug-In . SVG Version: 6.00 Build 0)  -->
<svg version="1.1" xmlns="http://www.w3.org/2000/svg" xmlns:xlink="http://www.w3.org/1999/xlink" x="0px" y="0px"
	 viewBox="0 0 70 70" style="enable-background:new 0 0 70 70;" xml:space="preserve">
<style type="text/css">
	.st0{fill:none;stroke:#FFFFFF;stroke-miterlimit:10;}
	.st1{fill:#FFFFFF;stroke:#FFFFFF;stroke-miterlimit:10;}
</style>
<g id="Layer_1">
	<path class="st0" d="M67.5,35c0,17.9-14.6,32.5-32.5,32.5S2.5,52.9,2.5,35S17.1,2.5,35,2.5S67.5,17.1,67.5,35z M35,2.5
		C17.1,2.5,2.5,17.1,2.5,35S17.1,67.5,35,67.5S67.5,52.9,67.5,35S52.9,2.5,35,2.5z"/>
	<path class="st0" d="M58,35c0,12.7-10.3,23-23,23S12,47.7,12,35s10.3-23,23-23S58,22.3,58,35z M35,12c-12.7,0-23,10.3-23,23
		s10.3,23,23,23s23-10.3,23-23S47.7,12,35,12z"/>
</g>
<g id="Layer_2">
	<path class="st1" d="M67.5,35c0,17.9-14.6,32.5-32.5,32.5V58c12.7,0,23-10.3,23-23c0-12.7-10.3-23-23-23V2.5
		C52.9,2.5,67.5,17.1,67.5,35z"/>
</g>
</svg>
